HIERARCHY
ROOT Hip
{
   OFFSET 0.00000 0.00000 0.00000
   CHANNELS 6 Xposition Yposition Zposition Zrotation Yrotation Xrotation
   JOINT Head
   {
      OFFSET 0.000000 21.380400 0.000000
      CHANNELS 3 Zrotation Yrotation Xrotation
      End Site
      {
         OFFSET 0.000000 12.738600 0.000000
      }
      JOINT LeftShoulder
      {
         OFFSET 7.069139 0.000000 0.000000
         CHANNELS 3 Zrotation Yrotation Xrotation
         JOINT LeftHand
         {
            OFFSET 0.000000 -10.330199 0.000000
            CHANNELS 3 Zrotation Yrotation Xrotation
            End Site
            {
               OFFSET 0.000000 -11.313900 0.000000
            }
         }
      }
      JOINT RightShoulder
      {
         OFFSET -7.534079 0.000000 0.000000
         CHANNELS 3 Zrotation Yrotation Xrotation
         JOINT RghtHand
         {
            OFFSET 0.000000 -12.377699 0.000000
            CHANNELS 3 Zrotation Yrotation Xrotation
            End Site
            {
               OFFSET 0.000000 -8.478720 0.000000
            }
         }
      }
   }
   JOINT LeftHip
   {
      OFFSET 7.480170 0.000000 0.000000
      CHANNELS 3 Zrotation Yrotation Xrotation
      JOINT LeftKnee
      {
         OFFSET 0.000000 -21.085198 0.000000
         CHANNELS 3 Zrotation Yrotation Xrotation
         JOINT LeftFoot
         {
            OFFSET 0.000000 -16.076700 0.000000
            CHANNELS 3 Zrotation Yrotation Xrotation
            End Site
            {
               OFFSET 0.000000 0.000000 10.476900
            }
         }
      }
   }
   JOINT RightHip
   {
      OFFSET -7.480170 0.000000 0.000000
      CHANNELS 3 Zrotation Yrotation Xrotation
      JOINT RightKnee
      {
         OFFSET 0.000000 -19.082700 0.000000
         CHANNELS 3 Zrotation Yrotation Xrotation
         JOINT RightFoot
         {
            OFFSET 0.000000 -16.365599 0.000000
            CHANNELS 3 Zrotation Yrotation Xrotation
            End Site
            {
               OFFSET 0.000000 0.000000 10.523699
            }
         }
      }
   }
}
MOTION
Frames: 12
Frame Time: 0.016670
7.428245 77.452959 2.474580 27.780116 25.854296 251.988081 -7.372731 5.211661 16.409142 0.916763 -70.413779 90.515900 63.895142 179.799880 136.539142 -47.345232 -7.839775 28.311293 -83.982954 8.195164 51.402081 -84.591176 -11.054701 83.096314 65.881799 -52.428703 -9.082659 4.120260 -48.879043 -21.032989 -108.387445 -28.647266 86.059373 23.381254 -38.144172 45.517777 -41.248578 -30.198961 25.527719
9.288771 77.438368 1.603719 25.368919 29.669467 252.536655 -8.181028 4.794964 16.728697 2.166675 -64.672049 90.486455 65.139821 181.602914 137.903527 -46.059859 -7.182811 27.682600 -82.838105 6.993638 51.206772 -83.624335 -9.275365 83.855093 61.170600 -53.512517 -10.047431 4.701856 -49.365974 -20.597609 -109.528456 -25.177153 85.387337 21.971276 -37.086086 44.016915 -41.221920 -30.384663 25.350812
11.168574 77.240185 0.720827 22.904358 33.422749 252.926085 -9.512023 4.248431 17.173966 3.764408 -60.072682 91.002066 65.499902 184.342393 140.955707 -44.821201 -6.583913 25.927046 -82.344569 6.624177 51.248586 -81.686658 -7.247152 84.805145 56.765822 -54.125848 -10.629565 5.525527 -49.289435 -19.543430 -110.359137 -21.572345 84.630299 21.193957 -35.553634 42.580673 -41.505099 -30.138787 24.523162
13.129942 76.826619 -0.210118 20.419399 36.964680 253.708688 -9.761530 2.378055 16.077229 4.533626 -54.043448 90.557633 68.270357 185.205101 144.194323 -46.409305 -4.866447 23.845850 -81.249171 5.466920 51.108311 -78.437373 -5.499844 85.456991 52.715960 -54.945050 -10.438238 6.273340 -49.355227 -18.602341 -110.161410 -18.879864 83.396282 19.884077 -33.856373 41.829209 -41.366088 -30.515414 24.591898
15.128864 76.193923 -1.174306 17.790310 40.892503 254.254857 -10.862229 2.080866 15.206287 5.930880 -51.594822 90.210099 71.408542 185.643258 146.542392 -46.934328 -4.328713 22.837222 -79.347182 3.349110 51.349154 -76.065214 -3.802261 86.566043 49.699885 -55.529803 -10.408185 6.562890 -49.410791 -18.270601 -109.918992 -15.968234 81.999679 18.748782 -32.813940 41.391213 -40.546714 -31.018672 25.824520
17.180865 75.318922 -2.163107 15.571991 45.440760 254.797967 -12.723964 5.451628 15.434470 7.033313 -56.455717 90.290893 70.694616 188.498003 150.375699 -46.496004 -5.575567 24.596343 -76.970392 0.382662 53.024179 -74.509393 -1.952152 87.563373 47.494397 -56.264974 -10.525398 6.939345 -49.790658 -17.936167 -109.207417 -12.837309 79.683575 17.935834 -32.452541 41.374018 -38.892088 -31.715372 28.547462
19.251463 74.197801 -3.174161 13.580719 49.332646 256.517262 -13.567568 4.546251 12.420225 6.566570 -52.803103 89.831912 76.009200 187.500973 154.751692 -49.129185 -3.630312 24.882823 -74.637124 -2.370654 53.542010 -73.077847 -0.804015 89.019023 46.445177 -56.093007 -10.525211 7.669652 -49.474947 -16.816814 -106.974641 -11.068911 77.921551 17.340802 -32.006232 40.677154 -36.897269 -32.471846 31.908403
21.319766 72.821745 -4.225144 11.916009 53.469934 258.479329 -14.411175 5.560429 10.131229 6.751446 -51.055398 89.444653 79.862328 187.068663 157.673155 -50.393686 -2.581063 26.911729 -72.371189 -4.959739 55.063493 -70.837340 0.370673 90.315134 45.700014 -55.517284 -10.310407 9.690329 -48.854246 -13.792519 -103.020085 -9.367390 75.730890 17.730053 -31.274842 39.594624 -35.418042 -33.512327 34.739056
23.373651 71.170300 -5.321638 11.629188 57.731826 261.832406 -15.828740 7.732152 8.340236 7.049491 -50.836494 88.956281 82.633070 186.916569 159.773930 -49.837025 -2.857306 28.998504 -71.030313 -6.338709 57.126517 -70.722586 1.669248 92.027517 46.809107 -53.478670 -11.275953 11.923220 -47.370996 -10.187365 -96.633605 -7.666010 72.259085 18.835495 -31.285753 39.013402 -35.088475 -36.048915 36.633805
25.412342 69.264010 -6.515403 10.882280 61.876186 264.862305 -17.286372 9.777405 7.543888 5.935056 -52.320297 87.648143 83.908068 186.971962 161.825882 -48.797744 -4.387349 30.255880 -69.927784 -7.528256 59.516766 -68.535293 2.364715 92.738458 46.757440 -53.450475 -10.763655 12.860731 -47.377320 -8.862612 -86.263698 -5.181553 67.901322 19.143962 -32.636573 39.149135 -35.007967 -40.065644 39.035603
27.385804 67.115210 -7.773991 12.511487 65.950763 270.540924 -19.243923 10.611337 5.217205 7.959547 -49.197313 89.089648 86.835214 186.579212 162.647868 -47.053098 -4.854989 30.384011 -70.039553 -7.038246 60.246660 -64.055297 2.509203 90.956366 44.678614 -56.274273 -8.798565 14.547068 -49.802277 -7.193105 -77.047163 -1.829655 65.199476 22.739908 -35.921228 35.915201 -36.147878 -42.992520 38.970863
29.328544 64.693336 -9.103944 16.497446 69.827332 278.957794 -21.147058 11.740533 2.586776 8.525288 -49.177676 88.985159 88.631656 186.654863 164.543833 -46.625863 -5.261770 30.647960 -70.028919 -6.707717 61.470296 -62.893468 2.611498 89.975325 44.013811 -57.589648 -8.878329 17.107558 -51.338021 -4.103265 -66.324607 3.322908 62.538940 28.196554 -41.668993 30.546672 -36.066069 -44.788457 40.055778
